<?xml version="1.0" encoding="UTF-8"?>
<svg id="Warstwa_2" data-name="Warstwa 2" xmlns="http://www.w3.org/2000/svg" viewBox="0 0 822.74 143.5">
  <defs>
    <style>
      .cls-1 {
        fill: #1c1c1c;
        stroke-width: 0px;
      }
    </style>
  </defs>
  <g id="Warstwa_1-2" data-name="Warstwa 1">
    <g>
      <path class="cls-1" d="m93.98,76.3l-15.05-8.69v-31.73c0-3.96-3.21-7.17-7.17-7.17s-7.17,3.21-7.17,7.17v35.88c0,2.56,1.37,4.93,3.59,6.22l18.64,10.76c3.43,1.98,7.82.81,9.8-2.62,1.98-3.43.81-7.82-2.62-9.8,0,0,0,0,0,0ZM71.75,0C32.12,0,0,32.12,0,71.75s32.12,71.75,71.75,71.75,71.75-32.12,71.75-71.75C143.46,32.14,111.36.04,71.75,0Zm0,129.15c-31.7,0-57.4-25.7-57.4-57.4S40.05,14.35,71.75,14.35s57.4,25.7,57.4,57.4c-.04,31.69-25.71,57.36-57.4,57.4Z"/>
      <g>
        <path class="cls-1" d="m217.23,50.75h-23.76v-16.8h65.52v16.8h-23.76v57.6h-18v-57.6Z"/>
        <path class="cls-1" d="m270.27,33.95h18v74.4h-18V33.95Z"/>
        <path class="cls-1" d="m306.26,33.95h25.08l9.12,38.4h.72l9.12-38.4h25.08l2.88,74.4h-18.12l-1.32-36,.48-20.04-1.08-.24-10.68,38.4h-13.44l-10.68-38.4-1.08.24.48,20.04-1.32,36h-18.12l2.88-74.4Z"/>
        <path class="cls-1" d="m401.24,106.13c-5.48-2.28-8.22-6.38-8.22-12.3v-59.88h55.8v16.44h-37.8v13.32h31.68v15.72h-31.68v12.48c4.08.8,8.8,1.2,14.16,1.2,8.08,0,15.4-.76,21.96-2.28l2.28,16.08c-6.88,1.76-15.16,2.64-24.84,2.64s-17.86-1.14-23.34-3.42Z"/>
        <path class="cls-1" d="m460.1,85.43c9.76-4,17.26-7.3,22.5-9.9,5.24-2.6,9.36-5.4,12.36-8.4s4.5-6.38,4.5-10.14c0-2-.7-3.42-2.1-4.26-1.4-.84-3.78-1.26-7.14-1.26-3.92,0-7.36.44-10.32,1.32v8.88h-15.36c-1.36-4.56-2.04-9.68-2.04-15.36v-4.92c8.56-4.16,17.92-6.24,28.08-6.24,17.92,0,26.88,6.68,26.88,20.04,0,6-1.42,11.14-4.26,15.42-2.84,4.28-7.14,8.12-12.9,11.52-5.76,3.4-13.52,6.9-23.28,10.5v.48h25.8v-6.36h15.36c.64,2.08,1.12,4.5,1.44,7.26.32,2.76.48,5.38.48,7.86v6.48h-60v-22.92Z"/>
        <path class="cls-1" d="m535.7,33.95h25.08l9.12,38.4h.72l9.12-38.4h25.08l2.88,74.4h-18.12l-1.32-36,.48-20.04-1.08-.24-10.68,38.4h-13.44l-10.68-38.4-1.08.24.48,20.04-1.32,36h-18.12l2.88-74.4Z"/>
        <path class="cls-1" d="m630.68,106.13c-5.48-2.28-8.22-6.38-8.22-12.3v-59.88h55.8v16.44h-37.8v13.32h31.68v15.72h-31.68v12.48c4.08.8,8.8,1.2,14.16,1.2,8.08,0,15.4-.76,21.96-2.28l2.28,16.08c-6.88,1.76-15.16,2.64-24.84,2.64s-17.86-1.14-23.34-3.42Z"/>
        <path class="cls-1" d="m700.4,106.13c-5.48-2.28-8.22-6.38-8.22-12.3v-59.88h55.8v16.44h-37.8v13.32h31.68v15.72h-31.68v12.48c4.08.8,8.8,1.2,14.16,1.2,8.08,0,15.4-.76,21.96-2.28l2.28,16.08c-6.88,1.76-15.16,2.64-24.84,2.64s-17.86-1.14-23.34-3.42Z"/>
        <path class="cls-1" d="m780.98,50.75h-23.76v-16.8h65.52v16.8h-23.76v57.6h-18v-57.6Z"/>
      </g>
    </g>
  </g>
</svg>