<?xml version="1.0" encoding="UTF-8"?>
<svg id="Warstwa_2" data-name="Warstwa 2" xmlns="http://www.w3.org/2000/svg" viewBox="0 0 186 186">
  <defs>
    <style>
      .cls-1 {
        fill: #00263b;
      }

      .cls-1, .cls-2 {
        stroke-width: 0px;
      }

      .cls-2 {
        fill: #f4fcff;
      }
    </style>
  </defs>
  <g id="Warstwa_1-2" data-name="Warstwa 1">
    <g>
      <circle class="cls-1" cx="93" cy="93" r="93"/>
      <path class="cls-2" d="m114.98,97.32l-15.05-8.69v-31.73c0-3.96-3.21-7.17-7.17-7.17s-7.17,3.21-7.17,7.17v35.88c0,2.56,1.37,4.93,3.59,6.22l18.64,10.76c3.43,1.98,7.82.81,9.8-2.62,1.98-3.43.81-7.82-2.62-9.8,0,0,0,0,0,0Zm-22.23-76.3c-39.63,0-71.75,32.12-71.75,71.75s32.12,71.75,71.75,71.75,71.75-32.12,71.75-71.75c-.04-39.61-32.14-71.71-71.75-71.75Zm0,129.15c-31.7,0-57.4-25.7-57.4-57.4s25.7-57.4,57.4-57.4,57.4,25.7,57.4,57.4c-.04,31.69-25.71,57.36-57.4,57.4Z"/>
    </g>
  </g>
</svg>