<?xml version="1.0" encoding="UTF-8"?>
<svg id="Warstwa_2" data-name="Warstwa 2" xmlns="http://www.w3.org/2000/svg" viewBox="0 0 159.15 27.3">
  <defs>
    <style>
      .cls-1 {
        fill: #111;
      }

      .cls-2 {
        fill: #fa7e19;
      }
    </style>
  </defs>
  <g id="Warstwa_1-2" data-name="Warstwa 1">
    <path class="cls-2" d="M35.63,12.7L29.03.9C28.73.3,28.13,0,27.43,0h-6.9C19.63,0,18.93.5,18.43,1.3l-7.1,18.9-3.8-6.6L13.93,2.5c.3-.5.3-1.1,0-1.6s-.9-.9-1.6-.9h-3.9c-.7,0-1.3.3-1.6.9L.23,12.7c-.3.6-.3,1.3,0,1.9l6.6,11.8c.3.6.9.9,1.6.9h6.9c.9,0,1.6-.5,2.1-1.3l7.1-18.9,3.8,6.6-6.4,11.1c-.3.5-.3,1.1,0,1.6s.9.9,1.6.9h3.9c.7,0,1.3-.3,1.6-.9l6.6-11.8c.4-.6.4-1.3,0-1.9Z"/>
    <g>
      <path class="cls-1" d="M54.89,9.67c.18-.1.41-.18.71-.25.29-.07.6-.1.91-.1.49,0,.91.08,1.25.23.34.16.55.39.63.71.45,1.31.85,2.53,1.21,3.66.35,1.13.7,2.22,1.03,3.26.33,1.05.67,2.14,1,3.28h.12c.33-1.72.66-3.4.97-5.01.31-1.62.61-3.24.9-4.88.28-1.64.54-3.36.78-5.16.41-.22.86-.32,1.35-.32.45,0,.82.1,1.12.31.29.21.44.52.44.96,0,.39-.05.97-.15,1.73s-.24,1.65-.41,2.65c-.18,1-.38,2.06-.62,3.18s-.48,2.22-.74,3.31c-.26,1.09-.51,2.11-.78,3.06s-.51,1.76-.75,2.43c-.22.14-.51.26-.88.37s-.77.16-1.21.16c-.55,0-1.02-.08-1.41-.25-.39-.17-.64-.39-.73-.66-.26-.65-.55-1.47-.9-2.48s-.7-2.11-1.06-3.31-.72-2.4-1.07-3.62c-.31,1.2-.66,2.42-1.03,3.66-.37,1.24-.74,2.41-1.09,3.48-.35,1.08-.67,1.96-.94,2.65-.18.14-.44.26-.79.37-.35.11-.76.16-1.21.16-.53,0-.99-.09-1.4-.26s-.66-.39-.78-.65c-.2-.49-.44-1.21-.72-2.16-.28-.95-.58-2.05-.88-3.29s-.6-2.53-.88-3.87c-.28-1.33-.55-2.63-.79-3.88-.25-1.25-.45-2.37-.6-3.35.18-.16.42-.31.72-.46.3-.15.63-.22.98-.22.45,0,.81.1,1.07.31s.44.55.51,1.04c.27,1.43.52,2.74.75,3.94.22,1.2.45,2.34.66,3.44.22,1.1.44,2.19.66,3.26.22,1.08.46,2.21.72,3.38h.15c.24-.86.47-1.68.71-2.45.24-.77.48-1.56.72-2.37s.51-1.69.79-2.65c.28-.96.6-2.07.96-3.32Z"/>
      <path class="cls-1" d="M71.5,17.9l-.15-2.2,8.35-1.18c-.06-.9-.38-1.67-.97-2.29-.59-.63-1.42-.94-2.5-.94s-2.01.39-2.73,1.18c-.73.78-1.1,1.9-1.12,3.35l.06,1.12c.16,1.39.66,2.44,1.5,3.13.84.7,1.95,1.04,3.32,1.04.82,0,1.58-.13,2.26-.38.69-.25,1.23-.53,1.65-.82.24.14.43.32.57.56.15.24.22.49.22.76,0,.43-.22.82-.65,1.18-.43.35-1.01.63-1.75.82-.74.2-1.56.29-2.48.29-1.51,0-2.84-.28-3.98-.84-1.15-.56-2.03-1.39-2.66-2.5-.63-1.11-.94-2.46-.94-4.07,0-1.16.18-2.18.53-3.07.35-.89.83-1.64,1.44-2.25.61-.61,1.32-1.07,2.15-1.38.82-.31,1.71-.47,2.65-.47,1.23,0,2.33.26,3.28.78.95.52,1.69,1.24,2.22,2.16.53.92.79,1.97.79,3.15,0,.49-.12.85-.35,1.09s-.57.37-1,.41l-9.7,1.38Z"/>
      <path class="cls-1" d="M88.82,11.4h-3.03v-7.38c.14-.04.33-.09.59-.15.25-.06.53-.09.82-.09.55,0,.96.11,1.22.32.26.22.4.58.4,1.09v6.2ZM92.26,8.93c1.24,0,2.35.27,3.35.81s1.78,1.34,2.35,2.41c.57,1.07.85,2.42.85,4.04s-.3,3.01-.9,4.09c-.6,1.08-1.43,1.89-2.48,2.43-1.06.54-2.3.81-3.73.81-1.04,0-1.96-.13-2.76-.38-.8-.25-1.47-.54-2-.85-.41-.29-.71-.58-.88-.85s-.26-.63-.26-1.06v-9.61h3.03v9.53c.27.18.66.35,1.16.53.5.18,1.07.26,1.72.26,1.22,0,2.19-.4,2.94-1.19.74-.79,1.12-2.02,1.12-3.69s-.37-2.89-1.12-3.66c-.74-.77-1.71-1.16-2.88-1.16-.73,0-1.37.14-1.94.43s-1.04.6-1.41.96l-.35-2.44c.45-.31,1.02-.62,1.72-.93.7-.3,1.52-.46,2.48-.46Z"/>
      <path class="cls-1" d="M116.78,19.29c-.78,1.4-1.89,2.45-3.31,3.13-1.42.69-3.09,1.03-5.01,1.03-.63,0-1.36-.03-2.21-.09-.84-.06-1.63-.21-2.35-.44-.88-.29-1.32-.81-1.32-1.56V6.61c0-.33.09-.59.28-.78.19-.19.44-.33.75-.43.67-.22,1.41-.36,2.22-.43s1.6-.1,2.37-.1c1.94,0,3.64.34,5.1,1.01,1.46.68,2.6,1.69,3.42,3.03.82,1.34,1.24,3.04,1.24,5.1s-.39,3.88-1.18,5.28ZM113.93,10.24c-.59-.97-1.37-1.69-2.35-2.15-.98-.46-2.09-.69-3.32-.69-.53,0-1,.02-1.43.06-.42.04-.82.09-1.19.15v13.05c.41.1.86.17,1.35.21s.98.06,1.47.06c2.04,0,3.61-.58,4.7-1.75,1.1-1.17,1.65-2.88,1.65-5.13,0-1.57-.29-2.84-.88-3.81Z"/>
      <path class="cls-1" d="M124.95,14.93h-3.09V5.26c.14-.04.34-.08.6-.13.26-.05.54-.07.84-.07.57,0,.98.1,1.25.31s.4.58.4,1.13v8.44ZM121.87,11.75h3.09v11.32c-.14.04-.33.09-.59.15-.26.06-.53.09-.82.09-.59,0-1.01-.11-1.28-.34-.26-.22-.4-.59-.4-1.1v-10.11ZM127.07,14.93l-3.5-.26,9-9.56c.71.02,1.23.18,1.56.49.33.3.5.65.5,1.04,0,.33-.08.64-.24.91-.16.27-.41.58-.76.91l-6.56,6.47ZM123.92,13.87l2.88-.97c1.94,1.9,3.63,3.61,5.06,5.12,1.43,1.51,2.63,2.71,3.59,3.62-.02.53-.19.95-.5,1.25s-.7.46-1.15.46-.87-.12-1.19-.37c-.32-.24-.64-.53-.96-.87l-7.73-8.23Z"/>
      <path class="cls-1" d="M146.74,9.67c.18-.1.41-.18.71-.25.29-.07.6-.1.91-.1.49,0,.91.08,1.25.23.34.16.55.39.63.71.45,1.31.85,2.53,1.21,3.66.35,1.13.7,2.22,1.03,3.26.33,1.05.67,2.14,1,3.28h.12c.33-1.72.66-3.4.97-5.01.31-1.62.61-3.24.9-4.88.28-1.64.54-3.36.78-5.16.41-.22.86-.32,1.35-.32.45,0,.82.1,1.12.31.29.21.44.52.44.96,0,.39-.05.97-.15,1.73s-.24,1.65-.41,2.65c-.18,1-.38,2.06-.62,3.18s-.48,2.22-.74,3.31c-.26,1.09-.51,2.11-.78,3.06s-.51,1.76-.75,2.43c-.22.14-.51.26-.88.37s-.77.16-1.21.16c-.55,0-1.02-.08-1.41-.25-.39-.17-.64-.39-.73-.66-.26-.65-.55-1.47-.9-2.48s-.7-2.11-1.06-3.31-.72-2.4-1.07-3.62c-.31,1.2-.66,2.42-1.03,3.66-.37,1.24-.74,2.41-1.09,3.48-.35,1.08-.67,1.96-.94,2.65-.18.14-.44.26-.79.37-.35.11-.76.16-1.21.16-.53,0-.99-.09-1.4-.26s-.66-.39-.78-.65c-.2-.49-.44-1.21-.72-2.16-.28-.95-.58-2.05-.88-3.29s-.6-2.53-.88-3.87c-.28-1.33-.55-2.63-.79-3.88-.25-1.25-.45-2.37-.6-3.35.18-.16.42-.31.72-.46.3-.15.63-.22.98-.22.45,0,.81.1,1.07.31s.44.55.51,1.04c.27,1.43.52,2.74.75,3.94.22,1.2.45,2.34.66,3.44.22,1.1.44,2.19.66,3.26.22,1.08.46,2.21.72,3.38h.15c.24-.86.47-1.68.71-2.45.24-.77.48-1.56.72-2.37s.51-1.69.79-2.65c.28-.96.6-2.07.96-3.32Z"/>
    </g>
  </g>
</svg>